<mxfile host="65bd71144e">
    <diagram id="dfq4scQvj7t1t1Jvq5pm" name="Database">
        <mxGraphModel dx="807" dy="1671" grid="1" gridSize="10" guides="1" tooltips="1" connect="1" arrows="1" fold="1" page="1" pageScale="1" pageWidth="850" pageHeight="1100" background="none" math="0" shadow="0">
            <root>
                <mxCell id="0"/>
                <mxCell id="1" parent="0"/>
                <mxCell id="12" value="User" style="swimlane;childLayout=stackLayout;horizontal=1;startSize=30;horizontalStack=0;rounded=1;fontSize=14;fontStyle=0;strokeWidth=2;resizeParent=0;resizeLast=1;shadow=0;dashed=0;align=center;" parent="1" vertex="1">
                    <mxGeometry x="20" y="-230" width="160" height="190" as="geometry"/>
                </mxCell>
                <mxCell id="13" value="+ Name -&gt; string&#10;+ Username-&gt; string&#10;+ Email -&gt; mail&#10;+ Image -&gt; string&#10;+ Password -&gt; string&#10;+ Phone -&gt; string&#10;+ Age -&gt; number&#10;+ Google -&gt; bool&#10;+ Address -&gt; string&#10;+ locals -&gt;locals[]&#10;" style="align=left;strokeColor=none;fillColor=none;spacingLeft=4;fontSize=12;verticalAlign=top;resizable=0;rotatable=0;part=1;" parent="12" vertex="1">
                    <mxGeometry y="30" width="160" height="160" as="geometry"/>
                </mxCell>
                <mxCell id="16" value="Local" style="swimlane;childLayout=stackLayout;horizontal=1;startSize=30;horizontalStack=0;rounded=1;fontSize=14;fontStyle=0;strokeWidth=2;resizeParent=0;resizeLast=1;shadow=0;dashed=0;align=center;" parent="1" vertex="1">
                    <mxGeometry x="20" y="40" width="170" height="210" as="geometry"/>
                </mxCell>
                <mxCell id="17" value="+  LocalId: number,&#10;+  name: string,&#10;+  adress: string,&#10;+  uriImage: string,&#10;+  isVerify: boolean,&#10;+  products: Product[],&#10;+  schedules: date,&#10;+  rate: number,&#10;+  quantityRate: number,&#10;+  tags: string[],&#10;+  lat: string,&#10;+  long: string" style="align=left;strokeColor=none;fillColor=none;spacingLeft=4;fontSize=12;verticalAlign=top;resizable=0;rotatable=0;part=1;" parent="16" vertex="1">
                    <mxGeometry y="30" width="170" height="180" as="geometry"/>
                </mxCell>
                <mxCell id="18" value="Product" style="swimlane;childLayout=stackLayout;horizontal=1;startSize=30;horizontalStack=0;rounded=1;fontSize=14;fontStyle=0;strokeWidth=2;resizeParent=0;resizeLast=1;shadow=0;dashed=0;align=center;" parent="1" vertex="1">
                    <mxGeometry x="265" y="230" width="160" height="130" as="geometry"/>
                </mxCell>
                <mxCell id="19" value="+  productName: string,&#10;+  price: string,&#10;+  img: string,&#10;+  punctuation: string,&#10;+  descripcion : string,&#10;+ tags: string[]," style="align=left;strokeColor=none;fillColor=none;spacingLeft=4;fontSize=12;verticalAlign=top;resizable=0;rotatable=0;part=1;" parent="18" vertex="1">
                    <mxGeometry y="30" width="160" height="100" as="geometry"/>
                </mxCell>
                <mxCell id="21" value="Schedule" style="swimlane;childLayout=stackLayout;horizontal=1;startSize=30;horizontalStack=0;rounded=1;fontSize=14;fontStyle=0;strokeWidth=2;resizeParent=0;resizeLast=1;shadow=0;dashed=0;align=center;" parent="1" vertex="1">
                    <mxGeometry x="25" y="300" width="160" height="100" as="geometry"/>
                </mxCell>
                <mxCell id="22" value="+  from: string,&#10;+  to: string,&#10;+  open: string,&#10;+  close: string," style="align=left;strokeColor=none;fillColor=none;spacingLeft=4;fontSize=12;verticalAlign=top;resizable=0;rotatable=0;part=1;" parent="21" vertex="1">
                    <mxGeometry y="30" width="160" height="70" as="geometry"/>
                </mxCell>
                <mxCell id="70LDlbrw-JERDDGiXMj8-56" value="LikedProducts" style="swimlane;childLayout=stackLayout;horizontal=1;startSize=30;horizontalStack=0;rounded=1;fontSize=14;fontStyle=0;strokeWidth=2;resizeParent=0;resizeLast=1;shadow=0;dashed=0;align=center;" parent="1" vertex="1">
                    <mxGeometry x="250" y="-250" width="160" height="80" as="geometry"/>
                </mxCell>
                <mxCell id="70LDlbrw-JERDDGiXMj8-57" value="+  User: string,&#10;+  Product: string," style="align=left;strokeColor=none;fillColor=none;spacingLeft=4;fontSize=12;verticalAlign=top;resizable=0;rotatable=0;part=1;" parent="70LDlbrw-JERDDGiXMj8-56" vertex="1">
                    <mxGeometry y="30" width="160" height="50" as="geometry"/>
                </mxCell>
                <mxCell id="70LDlbrw-JERDDGiXMj8-58" value="LikedLocal" style="swimlane;childLayout=stackLayout;horizontal=1;startSize=30;horizontalStack=0;rounded=1;fontSize=14;fontStyle=0;strokeWidth=2;resizeParent=0;resizeLast=1;shadow=0;dashed=0;align=center;" parent="1" vertex="1">
                    <mxGeometry x="250" y="-340" width="160" height="80" as="geometry"/>
                </mxCell>
                <mxCell id="70LDlbrw-JERDDGiXMj8-59" value="+  User: string,&#10;+  Local: string," style="align=left;strokeColor=none;fillColor=none;spacingLeft=4;fontSize=12;verticalAlign=top;resizable=0;rotatable=0;part=1;" parent="70LDlbrw-JERDDGiXMj8-58" vertex="1">
                    <mxGeometry y="30" width="160" height="50" as="geometry"/>
                </mxCell>
                <mxCell id="mbUt-W5NrpNwAsDVjMWK-54" value="Comment" style="swimlane;childLayout=stackLayout;horizontal=1;startSize=30;horizontalStack=0;rounded=1;fontSize=14;fontStyle=0;strokeWidth=2;resizeParent=0;resizeLast=1;shadow=0;dashed=0;align=center;" parent="1" vertex="1">
                    <mxGeometry x="265" y="80" width="130" height="130" as="geometry"/>
                </mxCell>
                <mxCell id="mbUt-W5NrpNwAsDVjMWK-55" value="commentId: ObjectId&#10;LocalId: ObjectId&#10;UserId:ObjectId&#10;comment:string(256)&#10;like:int&#10;dislike:int&#10;" style="align=left;strokeColor=none;fillColor=none;spacingLeft=4;fontSize=12;verticalAlign=top;resizable=0;rotatable=0;part=1;" parent="mbUt-W5NrpNwAsDVjMWK-54" vertex="1">
                    <mxGeometry y="30" width="130" height="100" as="geometry"/>
                </mxCell>
                <mxCell id="mbUt-W5NrpNwAsDVjMWK-56" value="Reply" style="swimlane;childLayout=stackLayout;horizontal=1;startSize=30;horizontalStack=0;rounded=1;fontSize=14;fontStyle=0;strokeWidth=2;resizeParent=0;resizeLast=1;shadow=0;dashed=0;align=center;" parent="1" vertex="1">
                    <mxGeometry x="490" y="100" width="130" height="110" as="geometry"/>
                </mxCell>
                <mxCell id="mbUt-W5NrpNwAsDVjMWK-57" value="replyId: ObjectId&#10;commentId: ObjectId&#10;UserId:ObjectId&#10;reply:string(256)&#10;" style="align=left;strokeColor=none;fillColor=none;spacingLeft=4;fontSize=12;verticalAlign=top;resizable=0;rotatable=0;part=1;" parent="mbUt-W5NrpNwAsDVjMWK-56" vertex="1">
                    <mxGeometry y="30" width="130" height="80" as="geometry"/>
                </mxCell>
                <mxCell id="r5jr3pNOG1lA3lrCErKS-54" value="LikedComments" style="swimlane;childLayout=stackLayout;horizontal=1;startSize=30;horizontalStack=0;rounded=1;fontSize=14;fontStyle=0;strokeWidth=2;resizeParent=0;resizeLast=1;shadow=0;dashed=0;align=center;" parent="1" vertex="1">
                    <mxGeometry x="250" y="-70" width="160" height="80" as="geometry"/>
                </mxCell>
                <mxCell id="r5jr3pNOG1lA3lrCErKS-55" value="+  User: string,&#10;+  Comment: string," style="align=left;strokeColor=none;fillColor=none;spacingLeft=4;fontSize=12;verticalAlign=top;resizable=0;rotatable=0;part=1;" parent="r5jr3pNOG1lA3lrCErKS-54" vertex="1">
                    <mxGeometry y="30" width="160" height="50" as="geometry"/>
                </mxCell>
                <mxCell id="sHkhhgN5T9ELdEEyjeLo-54" value="DisLikedComments" style="swimlane;childLayout=stackLayout;horizontal=1;startSize=30;horizontalStack=0;rounded=1;fontSize=14;fontStyle=0;strokeWidth=2;resizeParent=0;resizeLast=1;shadow=0;dashed=0;align=center;" parent="1" vertex="1">
                    <mxGeometry x="250" y="-160" width="160" height="80" as="geometry"/>
                </mxCell>
                <mxCell id="sHkhhgN5T9ELdEEyjeLo-55" value="+  User: string,&#10;+  Comment: string," style="align=left;strokeColor=none;fillColor=none;spacingLeft=4;fontSize=12;verticalAlign=top;resizable=0;rotatable=0;part=1;" parent="sHkhhgN5T9ELdEEyjeLo-54" vertex="1">
                    <mxGeometry y="30" width="160" height="50" as="geometry"/>
                </mxCell>
                <mxCell id="66" value="" style="resizable=0;html=1;align=left;verticalAlign=bottom;" parent="1" connectable="0" vertex="1">
                    <mxGeometry x="120" y="400" width="160" as="geometry">
                        <mxPoint x="-30" y="125" as="offset"/>
                    </mxGeometry>
                </mxCell>
                <mxCell id="77" style="edgeStyle=none;html=1;exitX=0.5;exitY=1;exitDx=0;exitDy=0;strokeColor=default;endArrow=ERmany;endFill=0;startArrow=ERone;startFill=0;entryX=0.464;entryY=-0.01;entryDx=0;entryDy=0;entryPerimeter=0;strokeWidth=1;endSize=10;startSize=10;" edge="1" parent="1" source="13" target="16">
                    <mxGeometry relative="1" as="geometry">
                        <mxPoint x="100" y="140" as="targetPoint"/>
                    </mxGeometry>
                </mxCell>
                <mxCell id="79" style="edgeStyle=none;html=1;exitX=0.5;exitY=1;exitDx=0;exitDy=0;entryX=0.5;entryY=0;entryDx=0;entryDy=0;strokeColor=default;strokeWidth=1;startArrow=ERone;startFill=0;endArrow=ERoneToMany;endFill=0;startSize=10;endSize=10;" edge="1" parent="1" source="17" target="21">
                    <mxGeometry relative="1" as="geometry"/>
                </mxCell>
                <mxCell id="81" style="edgeStyle=orthogonalEdgeStyle;html=1;exitX=1;exitY=0.75;exitDx=0;exitDy=0;entryX=0;entryY=0.5;entryDx=0;entryDy=0;strokeColor=default;strokeWidth=1;startArrow=ERone;startFill=0;endArrow=ERoneToMany;endFill=0;startSize=10;endSize=10;" edge="1" parent="1" source="17" target="18">
                    <mxGeometry relative="1" as="geometry"/>
                </mxCell>
                <mxCell id="82" style="edgeStyle=none;html=1;strokeColor=default;strokeWidth=1;startArrow=ERoneToMany;startFill=0;endArrow=ERzeroToMany;endFill=0;startSize=10;endSize=10;exitX=1;exitY=0.278;exitDx=0;exitDy=0;exitPerimeter=0;" edge="1" parent="1" source="17">
                    <mxGeometry relative="1" as="geometry">
                        <mxPoint x="260" y="120" as="targetPoint"/>
                        <mxPoint x="190" y="115" as="sourcePoint"/>
                    </mxGeometry>
                </mxCell>
                <mxCell id="83" style="edgeStyle=none;html=1;exitX=1;exitY=0.5;exitDx=0;exitDy=0;strokeColor=default;strokeWidth=1;startArrow=ERoneToMany;startFill=0;endArrow=ERzeroToMany;endFill=0;startSize=10;endSize=10;" edge="1" parent="1" source="mbUt-W5NrpNwAsDVjMWK-55">
                    <mxGeometry relative="1" as="geometry">
                        <mxPoint x="490" y="160" as="targetPoint"/>
                    </mxGeometry>
                </mxCell>
                <mxCell id="87" style="edgeStyle=orthogonalEdgeStyle;html=1;entryX=0;entryY=0.5;entryDx=0;entryDy=0;strokeColor=default;strokeWidth=1;startArrow=ERoneToMany;startFill=0;endArrow=ERoneToMany;endFill=0;startSize=10;endSize=10;exitX=0.438;exitY=0;exitDx=0;exitDy=0;exitPerimeter=0;" edge="1" parent="1" source="12" target="70LDlbrw-JERDDGiXMj8-58">
                    <mxGeometry relative="1" as="geometry">
                        <mxPoint x="80" y="-300" as="sourcePoint"/>
                    </mxGeometry>
                </mxCell>
                <mxCell id="90" style="edgeStyle=none;html=1;exitX=1;exitY=0;exitDx=0;exitDy=0;strokeColor=default;strokeWidth=1;startArrow=ERoneToMany;startFill=0;endArrow=ERoneToMany;endFill=0;startSize=10;endSize=10;entryX=0;entryY=0.4;entryDx=0;entryDy=0;entryPerimeter=0;" edge="1" parent="1" source="13" target="70LDlbrw-JERDDGiXMj8-57">
                    <mxGeometry relative="1" as="geometry">
                        <mxPoint x="240" y="-200" as="targetPoint"/>
                    </mxGeometry>
                </mxCell>
                <mxCell id="92" style="edgeStyle=none;html=1;entryX=0;entryY=0.25;entryDx=0;entryDy=0;strokeColor=default;strokeWidth=1;startArrow=ERoneToMany;startFill=0;endArrow=ERoneToMany;endFill=0;startSize=10;endSize=10;exitX=1.008;exitY=0.935;exitDx=0;exitDy=0;exitPerimeter=0;" edge="1" parent="1" source="13" target="r5jr3pNOG1lA3lrCErKS-54">
                    <mxGeometry relative="1" as="geometry"/>
                </mxCell>
                <mxCell id="94" style="edgeStyle=orthogonalEdgeStyle;html=1;strokeColor=default;strokeWidth=1;startArrow=ERoneToMany;startFill=0;endArrow=ERzeroToMany;endFill=0;startSize=10;endSize=10;exitX=0.653;exitY=1.015;exitDx=0;exitDy=0;exitPerimeter=0;entryX=0.085;entryY=0;entryDx=0;entryDy=0;entryPerimeter=0;" edge="1" parent="1" source="13" target="mbUt-W5NrpNwAsDVjMWK-54">
                    <mxGeometry relative="1" as="geometry">
                        <mxPoint x="130" y="-20" as="sourcePoint"/>
                        <mxPoint x="276" y="70" as="targetPoint"/>
                        <Array as="points">
                            <mxPoint x="125" y="30"/>
                            <mxPoint x="276" y="30"/>
                        </Array>
                    </mxGeometry>
                </mxCell>
                <mxCell id="98" style="edgeStyle=orthogonalEdgeStyle;html=1;exitX=1;exitY=0.5;exitDx=0;exitDy=0;entryX=0;entryY=0.5;entryDx=0;entryDy=0;strokeColor=default;strokeWidth=1;startArrow=ERoneToMany;startFill=0;endArrow=ERoneToMany;endFill=0;startSize=10;endSize=10;" edge="1" parent="1" source="13" target="sHkhhgN5T9ELdEEyjeLo-54">
                    <mxGeometry relative="1" as="geometry"/>
                </mxCell>
                <mxCell id="99" style="edgeStyle=orthogonalEdgeStyle;html=1;exitX=1.011;exitY=0.124;exitDx=0;exitDy=0;entryX=1;entryY=0;entryDx=0;entryDy=0;strokeColor=default;strokeWidth=1;startArrow=ERmandOne;startFill=0;endArrow=ERmandOne;endFill=0;startSize=10;endSize=10;exitPerimeter=0;" edge="1" parent="1" source="mbUt-W5NrpNwAsDVjMWK-55" target="sHkhhgN5T9ELdEEyjeLo-55">
                    <mxGeometry relative="1" as="geometry">
                        <Array as="points">
                            <mxPoint x="470" y="122"/>
                            <mxPoint x="470" y="-130"/>
                        </Array>
                    </mxGeometry>
                </mxCell>
                <mxCell id="100" style="edgeStyle=orthogonalEdgeStyle;html=1;exitX=0.5;exitY=1;exitDx=0;exitDy=0;entryX=0.5;entryY=0;entryDx=0;entryDy=0;strokeColor=default;strokeWidth=1;startArrow=ERmandOne;startFill=0;endArrow=ERmandOne;endFill=0;startSize=10;endSize=10;" edge="1" parent="1" source="r5jr3pNOG1lA3lrCErKS-55" target="mbUt-W5NrpNwAsDVjMWK-54">
                    <mxGeometry relative="1" as="geometry"/>
                </mxCell>
            </root>
        </mxGraphModel>
    </diagram>
    <diagram id="BPa-UHkgcwuQ-Z4H9gA3" name="User">
        <mxGraphModel dx="1151" dy="570" grid="1" gridSize="10" guides="1" tooltips="1" connect="1" arrows="1" fold="1" page="1" pageScale="1" pageWidth="850" pageHeight="1100" math="0" shadow="0">
            <root>
                <mxCell id="0"/>
                <mxCell id="1" parent="0"/>
                <mxCell id="sXhZtZXbX17402npqiWz-1" value="User" style="swimlane;childLayout=stackLayout;horizontal=1;startSize=30;horizontalStack=0;rounded=1;fontSize=14;fontStyle=0;strokeWidth=2;resizeParent=0;resizeLast=1;shadow=0;dashed=0;align=center;" parent="1" vertex="1">
                    <mxGeometry x="40" y="30" width="160" height="210" as="geometry"/>
                </mxCell>
                <mxCell id="sXhZtZXbX17402npqiWz-2" value="+ Name -&gt; string&#10;+ Email -&gt; mail&#10;+ Image -&gt; string&#10;+ Phone -&gt; string&#10;+ Age -&gt; number&#10;+ Google -&gt; bool&#10;+ Facebook -&gt; bool&#10;+ Address -&gt; string&#10;+ locals -&gt; bool&#10;&#10;" style="align=left;strokeColor=none;fillColor=none;spacingLeft=4;fontSize=12;verticalAlign=top;resizable=0;rotatable=0;part=1;" parent="sXhZtZXbX17402npqiWz-1" vertex="1">
                    <mxGeometry y="30" width="160" height="180" as="geometry"/>
                </mxCell>
            </root>
        </mxGraphModel>
    </diagram>
    <diagram id="9kS50toA24PQq8nJdRZk" name="Local">
        <mxGraphModel dx="1151" dy="570" grid="1" gridSize="10" guides="1" tooltips="1" connect="1" arrows="1" fold="1" page="1" pageScale="1" pageWidth="850" pageHeight="1100" math="0" shadow="0">
            <root>
                <mxCell id="0"/>
                <mxCell id="1" parent="0"/>
                <mxCell id="0VIafkdBmgdn1MZ_sX1k-1" value="Local" style="swimlane;childLayout=stackLayout;horizontal=1;startSize=30;horizontalStack=0;rounded=1;fontSize=14;fontStyle=0;strokeWidth=2;resizeParent=0;resizeLast=1;shadow=0;dashed=0;align=center;" parent="1" vertex="1">
                    <mxGeometry x="40" y="10" width="170" height="230" as="geometry"/>
                </mxCell>
                <mxCell id="0VIafkdBmgdn1MZ_sX1k-2" value="+  LocalId: number,&#10;+  name: string,&#10;+  adress: string,&#10;+  uriImage: string,&#10;+  isVerify: boolean,&#10;+  products: Product[],&#10;+  schedules: Schedule[],&#10;+  rate: number,&#10;+  quantityRate: number,&#10;+  tags: string[]&#10;+ long: string&#10;+ lat: string" style="align=left;strokeColor=none;fillColor=none;spacingLeft=4;fontSize=12;verticalAlign=top;resizable=0;rotatable=0;part=1;" parent="0VIafkdBmgdn1MZ_sX1k-1" vertex="1">
                    <mxGeometry y="30" width="170" height="200" as="geometry"/>
                </mxCell>
            </root>
        </mxGraphModel>
    </diagram>
    <diagram id="UJs9oBOm6o-esZ4-wXAz" name="Product">
        <mxGraphModel dx="1151" dy="570" grid="1" gridSize="10" guides="1" tooltips="1" connect="1" arrows="1" fold="1" page="1" pageScale="1" pageWidth="850" pageHeight="1100" math="0" shadow="0">
            <root>
                <mxCell id="0"/>
                <mxCell id="1" parent="0"/>
                <mxCell id="Yl93PIp3yihroiLEg5Rz-1" value="Product" style="swimlane;childLayout=stackLayout;horizontal=1;startSize=30;horizontalStack=0;rounded=1;fontSize=14;fontStyle=0;strokeWidth=2;resizeParent=0;resizeLast=1;shadow=0;dashed=0;align=center;" parent="1" vertex="1">
                    <mxGeometry x="40" y="40" width="160" height="150" as="geometry"/>
                </mxCell>
                <mxCell id="Yl93PIp3yihroiLEg5Rz-2" value="+  productName: string,&#10;+  price: string,&#10;+  img: string,&#10;+  punctuation: string,&#10;+  descripcion : string,&#10;+ tags: string[]," style="align=left;strokeColor=none;fillColor=none;spacingLeft=4;fontSize=12;verticalAlign=top;resizable=0;rotatable=0;part=1;" parent="Yl93PIp3yihroiLEg5Rz-1" vertex="1">
                    <mxGeometry y="30" width="160" height="120" as="geometry"/>
                </mxCell>
            </root>
        </mxGraphModel>
    </diagram>
    <diagram id="CvQdnz-AQesq5HmYPIsi" name="Schedule">
        <mxGraphModel dx="1151" dy="570" grid="1" gridSize="10" guides="1" tooltips="1" connect="1" arrows="1" fold="1" page="1" pageScale="1" pageWidth="850" pageHeight="1100" math="0" shadow="0">
            <root>
                <mxCell id="0"/>
                <mxCell id="1" parent="0"/>
                <mxCell id="hATsTJF4kZuX_Z8cMmuq-1" value="Schedule" style="swimlane;childLayout=stackLayout;horizontal=1;startSize=30;horizontalStack=0;rounded=1;fontSize=14;fontStyle=0;strokeWidth=2;resizeParent=0;resizeLast=1;shadow=0;dashed=0;align=center;" parent="1" vertex="1">
                    <mxGeometry x="40" y="40" width="160" height="100" as="geometry"/>
                </mxCell>
                <mxCell id="hATsTJF4kZuX_Z8cMmuq-2" value="+  from: string,&#10;+  to: string,&#10;+  open: string,&#10;+  close: string," style="align=left;strokeColor=none;fillColor=none;spacingLeft=4;fontSize=12;verticalAlign=top;resizable=0;rotatable=0;part=1;" parent="hATsTJF4kZuX_Z8cMmuq-1" vertex="1">
                    <mxGeometry y="30" width="160" height="70" as="geometry"/>
                </mxCell>
            </root>
        </mxGraphModel>
    </diagram>
    <diagram id="IiMBS5ljEN6D9kfixFfi" name="Likes">
        <mxGraphModel dx="1151" dy="570" grid="1" gridSize="10" guides="1" tooltips="1" connect="1" arrows="1" fold="1" page="1" pageScale="1" pageWidth="850" pageHeight="1100" math="0" shadow="0">
            <root>
                <mxCell id="0"/>
                <mxCell id="1" parent="0"/>
                <mxCell id="DuvrvsMX7kfASkCNhGuI-1" value="LikedProducts" style="swimlane;childLayout=stackLayout;horizontal=1;startSize=30;horizontalStack=0;rounded=1;fontSize=14;fontStyle=0;strokeWidth=2;resizeParent=0;resizeLast=1;shadow=0;dashed=0;align=center;" parent="1" vertex="1">
                    <mxGeometry x="40" y="40" width="160" height="100" as="geometry"/>
                </mxCell>
                <mxCell id="DuvrvsMX7kfASkCNhGuI-2" value="+  User: string,&#10;+  Product: string," style="align=left;strokeColor=none;fillColor=none;spacingLeft=4;fontSize=12;verticalAlign=top;resizable=0;rotatable=0;part=1;" parent="DuvrvsMX7kfASkCNhGuI-1" vertex="1">
                    <mxGeometry y="30" width="160" height="70" as="geometry"/>
                </mxCell>
                <mxCell id="DuvrvsMX7kfASkCNhGuI-3" value="LikedLocal" style="swimlane;childLayout=stackLayout;horizontal=1;startSize=30;horizontalStack=0;rounded=1;fontSize=14;fontStyle=0;strokeWidth=2;resizeParent=0;resizeLast=1;shadow=0;dashed=0;align=center;" parent="1" vertex="1">
                    <mxGeometry x="240" y="40" width="160" height="100" as="geometry"/>
                </mxCell>
                <mxCell id="DuvrvsMX7kfASkCNhGuI-4" value="+  User: string,&#10;+  Local: string," style="align=left;strokeColor=none;fillColor=none;spacingLeft=4;fontSize=12;verticalAlign=top;resizable=0;rotatable=0;part=1;" parent="DuvrvsMX7kfASkCNhGuI-3" vertex="1">
                    <mxGeometry y="30" width="160" height="70" as="geometry"/>
                </mxCell>
                <mxCell id="8h3GSRWmZR3c02rdFf-o-1" value="LikedComments" style="swimlane;childLayout=stackLayout;horizontal=1;startSize=30;horizontalStack=0;rounded=1;fontSize=14;fontStyle=0;strokeWidth=2;resizeParent=0;resizeLast=1;shadow=0;dashed=0;align=center;" parent="1" vertex="1">
                    <mxGeometry x="420" y="40" width="160" height="100" as="geometry"/>
                </mxCell>
                <mxCell id="8h3GSRWmZR3c02rdFf-o-2" value="+  User: string,&#10;+  Comment: string," style="align=left;strokeColor=none;fillColor=none;spacingLeft=4;fontSize=12;verticalAlign=top;resizable=0;rotatable=0;part=1;" parent="8h3GSRWmZR3c02rdFf-o-1" vertex="1">
                    <mxGeometry y="30" width="160" height="70" as="geometry"/>
                </mxCell>
            </root>
        </mxGraphModel>
    </diagram>
    <diagram id="1ptKOYtLsiTsGE3Xk_gv" name="Comments">
        <mxGraphModel dx="1151" dy="570" grid="1" gridSize="10" guides="1" tooltips="1" connect="1" arrows="1" fold="1" page="1" pageScale="1" pageWidth="850" pageHeight="1100" math="0" shadow="0">
            <root>
                <mxCell id="0"/>
                <mxCell id="1" parent="0"/>
                <mxCell id="Ea1p-Pury4z-DoApzVZW-1" value="Comment" style="swimlane;childLayout=stackLayout;horizontal=1;startSize=30;horizontalStack=0;rounded=1;fontSize=14;fontStyle=0;strokeWidth=2;resizeParent=0;resizeLast=1;shadow=0;dashed=0;align=center;" parent="1" vertex="1">
                    <mxGeometry x="120" y="80" width="160" height="220" as="geometry"/>
                </mxCell>
                <mxCell id="Ea1p-Pury4z-DoApzVZW-2" value="commentId: ObjectId&#10;LocalId: ObjectId&#10;UserId:ObjectId&#10;comment:string(256)&#10;like:int&#10;dislike:int&#10;" style="align=left;strokeColor=none;fillColor=none;spacingLeft=4;fontSize=12;verticalAlign=top;resizable=0;rotatable=0;part=1;" parent="Ea1p-Pury4z-DoApzVZW-1" vertex="1">
                    <mxGeometry y="30" width="160" height="190" as="geometry"/>
                </mxCell>
                <mxCell id="Ea1p-Pury4z-DoApzVZW-3" value="Reply" style="swimlane;childLayout=stackLayout;horizontal=1;startSize=30;horizontalStack=0;rounded=1;fontSize=14;fontStyle=0;strokeWidth=2;resizeParent=0;resizeLast=1;shadow=0;dashed=0;align=center;" parent="1" vertex="1">
                    <mxGeometry x="300" y="80" width="160" height="220" as="geometry"/>
                </mxCell>
                <mxCell id="Ea1p-Pury4z-DoApzVZW-4" value="replyId: ObjectId&#10;commentId: ObjectId&#10;UserId:ObjectId&#10;reply:string(256)&#10;" style="align=left;strokeColor=none;fillColor=none;spacingLeft=4;fontSize=12;verticalAlign=top;resizable=0;rotatable=0;part=1;" parent="Ea1p-Pury4z-DoApzVZW-3" vertex="1">
                    <mxGeometry y="30" width="160" height="190" as="geometry"/>
                </mxCell>
            </root>
        </mxGraphModel>
    </diagram>
    <diagram id="lXiH23BoyuXyMfAQ4f1b" name="VerifyEmail">
        <mxGraphModel dx="1151" dy="570" grid="1" gridSize="10" guides="1" tooltips="1" connect="1" arrows="1" fold="1" page="1" pageScale="1" pageWidth="850" pageHeight="1100" math="0" shadow="0">
            <root>
                <mxCell id="0"/>
                <mxCell id="1" parent="0"/>
                <mxCell id="HJjaZ7ZI8QGbXZ1ixgoa-1" value="VerifyEmail" style="swimlane;childLayout=stackLayout;horizontal=1;startSize=30;horizontalStack=0;rounded=1;fontSize=14;fontStyle=0;strokeWidth=2;resizeParent=0;resizeLast=1;shadow=0;dashed=0;align=center;" parent="1" vertex="1">
                    <mxGeometry x="300" y="80" width="160" height="90" as="geometry"/>
                </mxCell>
                <mxCell id="HJjaZ7ZI8QGbXZ1ixgoa-2" value="Email: string&#10;Code: string&#10;" style="align=left;strokeColor=none;fillColor=none;spacingLeft=4;fontSize=12;verticalAlign=top;resizable=0;rotatable=0;part=1;" parent="HJjaZ7ZI8QGbXZ1ixgoa-1" vertex="1">
                    <mxGeometry y="30" width="160" height="60" as="geometry"/>
                </mxCell>
            </root>
        </mxGraphModel>
    </diagram>
    <diagram id="UdcbJMe37pucz0GjNTOE" name="Dislike">
        <mxGraphModel dx="1151" dy="1670" grid="1" gridSize="10" guides="1" tooltips="1" connect="1" arrows="1" fold="1" page="1" pageScale="1" pageWidth="850" pageHeight="1100" math="0" shadow="0">
            <root>
                <mxCell id="0"/>
                <mxCell id="1" parent="0"/>
                <mxCell id="uXZTG4O3NQpjmdwQcE0_-1" value="DisLikedComments" style="swimlane;childLayout=stackLayout;horizontal=1;startSize=30;horizontalStack=0;rounded=1;fontSize=14;fontStyle=0;strokeWidth=2;resizeParent=0;resizeLast=1;shadow=0;dashed=0;align=center;" parent="1" vertex="1">
                    <mxGeometry x="200" width="160" height="100" as="geometry"/>
                </mxCell>
                <mxCell id="uXZTG4O3NQpjmdwQcE0_-2" value="+  User: string,&#10;+  Comment: string," style="align=left;strokeColor=none;fillColor=none;spacingLeft=4;fontSize=12;verticalAlign=top;resizable=0;rotatable=0;part=1;" parent="uXZTG4O3NQpjmdwQcE0_-1" vertex="1">
                    <mxGeometry y="30" width="160" height="70" as="geometry"/>
                </mxCell>
            </root>
        </mxGraphModel>
    </diagram>
</mxfile>